# 3ds Max Wavefront OBJ Exporter v0.99 - (c)2007 guruware
# File Created: 01.12.2023 00:36:21

#
# object Pyramid001
#

v  0.0000 0.7329 -0.0000
v  -0.4658 0.0000 0.4658
v  0.4658 0.0000 0.4658
v  0.4658 0.0000 -0.4658
v  -0.4658 0.0000 -0.4658
v  0.0000 0.0000 -0.0000
# 6 vertices

vn 0.0000 0.5364 0.8440
vn 0.8440 0.5364 -0.0000
vn 0.0000 0.5364 -0.8440
vn -0.8440 0.5364 -0.0000
vn 0.0000 -1.0000 -0.0000
# 5 vertex normals

vt 0.5000 1.0000 0.0000
vt 0.0000 0.0000 0.0000
vt 1.0000 0.0000 0.0000
vt 0.0000 1.0000 0.0000
vt 0.5000 0.5000 0.0000
vt 1.0000 1.0000 0.0000
# 6 texture coords

o Pyramid001
g Pyramid001
f 1/1/1 2/2/1 3/3/1 
f 1/1/2 3/2/2 4/3/2 
f 1/1/3 4/2/3 5/3/3 
f 1/1/4 5/2/4 2/3/4 
f 2/4/5 6/5/5 3/6/5 
f 3/6/5 6/5/5 4/3/5 
f 4/3/5 6/5/5 5/2/5 
f 5/2/5 6/5/5 2/4/5 
# 8 faces

